<svg xmlns="http://www.w3.org/2000/svg" viewBox="0 0 32 32">
  <path fill="#fff" d="M22,32H10C4.5,32,0,27.5,0,22V10C0,4.5,4.5,0,10,0h12c5.5,0,10,4.5,10,10v12C32,27.5,27.5,32,22,32z"/>
  <path fill="#000" d="M26.31,17.34l-6.64,1.72l4.63-14.75c0.08-0.27-0.3-0.41-0.41-0.16l-6.27,13.74c-0.08,0.17-0.33,0.17-0.4,0
      l-2.23-4.85l1.8-3.93c0.11-0.25-0.24-0.44-0.39-0.21l-1.94,2.98l-3.55-7.74c-0.12-0.25-0.5-0.11-0.41,0.16l2.91,9.2L5.45,25.66
      c-0.12,0.18,0.07,0.41,0.27,0.33l10.32-4.09l1.16,3.69c0.07,0.21,0.36,0.21,0.42,0l1.55-4.93l7.28-2.88
      C26.71,17.66,26.58,17.27,26.31,17.34z M11.68,21.13c-0.18,0.05-0.34-0.14-0.26-0.31l2.53-5.54l1.53,4.86L11.68,21.13z"/>
</svg>
